<svg id="UI" xmlns="http://www.w3.org/2000/svg" viewBox="0 0 33.2 33.2"><path d="M27.44,4a1.6,1.6,0,0,0-2.26,0l0,0L23.39,5.74a10.2,10.2,0,0,0-1.49-.81,14.33,14.33,0,0,0-1.58-.61V1.62A1.55,1.55,0,0,0,19.85.47,1.55,1.55,0,0,0,18.7,0H15.32a1.61,1.61,0,0,0-1.13.47,1.56,1.56,0,0,0-.48,1.15V4.08a12,12,0,0,0-1.64.51,12.14,12.14,0,0,0-1.51.7L8.62,3.37A1.48,1.48,0,0,0,7.5,2.89a1.6,1.6,0,0,0-1.15.48L4,5.74A1.6,1.6,0,0,0,4,8L4,8,5.74,9.79a11.35,11.35,0,0,0-.81,1.49,16.06,16.06,0,0,0-.61,1.58H1.62a1.55,1.55,0,0,0-1.15.47A1.57,1.57,0,0,0,0,14.48v3.38A1.61,1.61,0,0,0,.47,19a1.53,1.53,0,0,0,1.15.48H4.08a12,12,0,0,0,.51,1.64,15.18,15.18,0,0,0,.7,1.54L3.37,24.57a1.51,1.51,0,0,0-.49,1.13,1.63,1.63,0,0,0,.49,1.15l2.37,2.39a1.67,1.67,0,0,0,2.3,0l1.75-1.78a11.24,11.24,0,0,0,1.49.81,16.71,16.71,0,0,0,1.58.62v2.69a1.61,1.61,0,0,0,1.59,1.62h3.41A1.61,1.61,0,0,0,19,32.73a1.53,1.53,0,0,0,.48-1.15V29.12a12,12,0,0,0,1.64-.51,13.26,13.26,0,0,0,1.54-.7l1.92,1.9a1.57,1.57,0,0,0,2.22.05l.06-.05,2.39-2.37a1.67,1.67,0,0,0,0-2.3l-1.78-1.75a11.24,11.24,0,0,0,.81-1.49,16.71,16.71,0,0,0,.62-1.58h2.69a1.61,1.61,0,0,0,1.62-1.59V15.32a1.61,1.61,0,0,0-.47-1.13,1.56,1.56,0,0,0-1.15-.48H29.12a15.22,15.22,0,0,0-.51-1.62,13.12,13.12,0,0,0-.7-1.53l1.92-1.94a1.53,1.53,0,0,0,.49-1.12,1.61,1.61,0,0,0-.49-1.15L27.46,4Zm-8.69,7.73-2.48,1.41,3,.37,2.26-1.42Zm-3,2.16-.12,3.49-1.33-.9L13,17.23l.27-3.66-2.46-.32V21l8.18.91V14.29l-3.18-.41ZM13.7,12.8l2.4-1.43-1.19-.15-3.06,1.35,1.85.23Zm6.06,1.37v7.49l2.65-1.58-.05-7.56-2.61,1.64Zm-.17,8.55a.43.43,0,0,1-.24.08h-.07l-9-1a.41.41,0,0,1-.39-.41v-8.6a.41.41,0,0,1,.25-.38l4.49-2a.42.42,0,0,1,.22,0l7.78,1a.48.48,0,0,1,.51.41h0l.06,8.46a.41.41,0,0,1-.2.37l-3.46,2.05Zm-3-15.86a9.72,9.72,0,1,1-9.72,9.72A9.72,9.72,0,0,1,16.59,6.86Z" fill="#bc6e19"/></svg>