<svg id="UI" xmlns="http://www.w3.org/2000/svg" viewBox="0 0 45.02 33.3"><path d="M41.56,17c-.34-.13-.72-.26-1-.4l.15-.17c1.33-1.46,2.84-3.11,2.85-6l.18-2.28a8.3,8.3,0,0,0-1.82-6.37A5.46,5.46,0,0,0,37.77,0a7.64,7.64,0,0,0-2.38.41L33.6,1c-2.36.72-4.23,1.3-5.25,2.8a6,6,0,0,0-3.47-1,8.4,8.4,0,0,0-2.6.44c-.7.24-1.35.44-2,.63-1.13.35-2.16.67-3.05,1.05a6.93,6.93,0,0,0-1.58-3.1A5.48,5.48,0,0,0,11.55,0,7.65,7.65,0,0,0,9.16.41L7.37,1C3.48,2.18.91,3,1.31,8.13l.18,2.28c0,2.93,1.52,4.58,2.85,6l.15.17c-.31.14-.69.27-1,.4C1.92,17.56,0,18.23,0,20v7.84H12.23V33.3H32.78V27.87H45V20C45,18.23,43.1,17.56,41.56,17ZM3.28,10.13V8.32a4.87,4.87,0,0,1,0-.54,22.73,22.73,0,0,0,9.14-2.24A2.93,2.93,0,0,0,14.11,7.7a8.55,8.55,0,0,0-.43,3.92l.08,1.12A4.29,4.29,0,0,1,9.4,16.27,6.14,6.14,0,0,1,3.28,10.13ZM9.4,23.79l-4.8-5.1h9.59ZM38.67,5.54c.24.84.78,2.24,2.24,2.24h.81a4.87,4.87,0,0,1,0,.54v1.81a6.14,6.14,0,0,1-6.11,6.14,4.56,4.56,0,0,1-4.42-2.87l.13-1.78A11.06,11.06,0,0,0,31,7.7,23.44,23.44,0,0,0,38.67,5.54ZM22.51,28.88l-5.28-5.61H27.8Zm6.82-15a6.82,6.82,0,1,1-13.64,0v-2c0-.22,0-.45,0-.67a24.82,24.82,0,0,0,10.19-2.5c.27.94.82,2.5,2.43,2.5h.79a10.36,10.36,0,0,0,.2,1.28Zm6.29,10-4.79-5.1h9.59Z" fill="#bc6e19"/></svg>