<svg id="UI" xmlns="http://www.w3.org/2000/svg" viewBox="0 0 45.02 33.2"><path d="M41.56,16.88c-.34-.12-.72-.25-1-.39l.15-.17c1.33-1.46,2.84-3.12,2.85-6L43.71,8a8.3,8.3,0,0,0-1.82-6.37A5.46,5.46,0,0,0,37.77-.13a7.61,7.61,0,0,0-2.38.4c-.63.21-1.22.4-1.79.57-2.36.73-4.23,1.31-5.25,2.8a6,6,0,0,0-3.47-1,8.13,8.13,0,0,0-2.6.45l-2,.63a27.62,27.62,0,0,0-3.05,1.05,6.93,6.93,0,0,0-1.58-3.1A5.48,5.48,0,0,0,11.55-.13a7.63,7.63,0,0,0-2.39.4c-.63.21-1.22.4-1.79.57C3.48,2,.91,2.84,1.31,8l.18,2.28c0,2.92,1.52,4.58,2.85,6l.15.17c-.31.14-.69.27-1,.39C1.92,17.42,0,18.1,0,19.9v7.83H12.23v5.44H32.78V27.73H45V19.9C45,18.1,43.1,17.42,41.56,16.88ZM3.28,10V8.18a5,5,0,0,1,0-.54A22.4,22.4,0,0,0,12.44,5.4a2.92,2.92,0,0,0,1.67,2.17,8.55,8.55,0,0,0-.43,3.92l.08,1.12A4.28,4.28,0,0,1,9.4,16.13,6.13,6.13,0,0,1,3.28,10ZM9.4,23.65,4.6,18.56h9.59ZM38.67,5.4c.24.85.78,2.25,2.24,2.25h.81a4.78,4.78,0,0,1,0,.53V10a6.13,6.13,0,0,1-6.11,6.13,4.55,4.55,0,0,1-4.42-2.87l.13-1.77A11.12,11.12,0,0,0,31,7.56,22.94,22.94,0,0,0,38.67,5.4ZM22.51,28.74l-5.28-5.61H27.8Zm6.82-15a6.82,6.82,0,1,1-13.64,0v-2q0-.33,0-.66A24.78,24.78,0,0,0,25.91,8.52c.27,1,.82,2.51,2.43,2.51h.79a10.2,10.2,0,0,0,.2,1.27Zm6.29,10-4.79-5.09h9.59Z" fill="#fff"/></svg>