<svg id="UI" xmlns="http://www.w3.org/2000/svg" viewBox="0 0 36.79 33.2"><path d="M17.94,3.79H23.4a.54.54,0,0,1,.54.54V25.79a.54.54,0,0,1-.54.54H17.94a.54.54,0,0,1-.54-.54V4.31a.54.54,0,0,1,.54-.54ZM36.79,33.17H2.9A2.68,2.68,0,0,1,.22,30.51h0V0H3.65V29.74H36.79v3.43ZM28.05,14.52h5.46a.54.54,0,0,1,.54.54V25.79a.54.54,0,0,1-.54.54H28.05a.54.54,0,0,1-.54-.54V15a.54.54,0,0,1,.54-.54ZM7.83,7.94H13.3a.54.54,0,0,1,.52.53V25.79a.53.53,0,0,1-.52.54H7.83a.54.54,0,0,1-.54-.54V8.47A.54.54,0,0,1,7.83,7.94Z" fill="#fff"/></svg>