<svg id="UI" xmlns="http://www.w3.org/2000/svg" xmlns:xlink="http://www.w3.org/1999/xlink" viewBox="0 0 150.63 72.93"><defs><clipPath id="clip-path"><path d="M34.56,57.81a18.4,18.4,0,0,1-7.27,1.52,17.72,17.72,0,0,1-8.57-2.2h0a24.15,24.15,0,0,1-9.4-9L9.23,48A15.72,15.72,0,0,1,27.5,49.49a14.32,14.32,0,0,1,1.43,1.38l.58.62h0a15.59,15.59,0,0,0,5.34,3.9,16.73,16.73,0,0,1-10.15-2.08,14.26,14.26,0,0,0,6.71,4.07A13.14,13.14,0,0,0,34.56,57.81Z" fill="#fff"/></clipPath><clipPath id="clip-path-2"><path d="M45.49,46.56a21.22,21.22,0,0,1-3.61,5.86c-.27.31-.54.61-.82.9-.45.46-.92.91-1.41,1.33a15.44,15.44,0,0,1-2.49-.5,16.39,16.39,0,0,1-6.74-4.6l0,0a.08.08,0,0,0,0,0,15.66,15.66,0,0,1,15.13-2.93Z" fill="#fff"/></clipPath></defs><path d="M54.5,65c-1.64-1.47-4.68-2-6.82-2.31a1,1,0,0,0-.56,1.89l1.9,1c.62.31,1.22.62,1.77,1a5.66,5.66,0,0,1,.48.31,13.37,13.37,0,0,1-2.75.88A93.61,93.61,0,0,1,31.8,69.39a108.89,108.89,0,0,1-25.11-2.3,15.76,15.76,0,0,1-2.2-.73c1.37-.74,2.84-1.24,4.33-1.92a.86.86,0,0,0-.37-1.64A22.42,22.42,0,0,0,4,63.32,9.8,9.8,0,0,0,1.93,64C.56,64.61-.4,65.91.16,67.43S2.23,69.51,3.55,70a60.26,60.26,0,0,0,10.93,2.17,129.07,129.07,0,0,0,13,.78,129.39,129.39,0,0,0,13.06-.54,57.57,57.57,0,0,0,11-1.84,6.69,6.69,0,0,0,3.17-1.67A2.66,2.66,0,0,0,54.5,65ZM3.41,67.09l-.05,0,0,0s0,0,0,0,0,0,0,0L3.44,67l0,0Zm48.52.28,0-.06a.63.63,0,0,1,.1.12S52,67.48,51.93,67.37Z" fill="#fff"/><path d="M61.75,41a4.83,4.83,0,0,0-5.38-1.74,5,5,0,0,0-3,3.36.75.75,0,0,0,1.16.82l.21-.15a6.57,6.57,0,0,1,1.37-1,2.15,2.15,0,0,1,2.8.49,2.8,2.8,0,0,1,.6,1.72,10.89,10.89,0,0,1-.41,3.44,17.22,17.22,0,0,1-.69,1.76.78.78,0,0,0,0,.79.79.79,0,0,0,1.1.25,6.57,6.57,0,0,0,1.72-1.65,7.73,7.73,0,0,0,1.24-2.79A6.14,6.14,0,0,0,61.75,41Z" fill="#fff"/><path d="M34.56,57.81a18.4,18.4,0,0,1-7.27,1.52,17.72,17.72,0,0,1-8.57-2.2h0a24.15,24.15,0,0,1-9.4-9L9.23,48A15.72,15.72,0,0,1,27.5,49.49a14.32,14.32,0,0,1,1.43,1.38l.58.62h0a15.59,15.59,0,0,0,5.34,3.9,16.73,16.73,0,0,1-10.15-2.08,14.26,14.26,0,0,0,6.71,4.07A13.14,13.14,0,0,0,34.56,57.81Z" fill="#fff"/><g clip-path="url(#clip-path)"><polygon points="12.16 45.76 9.23 45.83 9.23 45.76 12.16 45.76" fill="#fff"/><polygon points="26.99 45.76 9.23 46.2 9.23 45.83 12.16 45.76 26.99 45.76" fill="#fff"/><polygon points="34.86 45.93 9.23 46.58 9.23 46.2 26.99 45.76 34.86 45.76 34.86 45.93" fill="#fff"/><polygon points="34.86 46.3 9.23 46.95 9.23 46.58 34.86 45.93 34.86 46.3" fill="#fff"/><polygon points="34.86 46.68 9.23 47.33 9.23 46.95 34.86 46.3 34.86 46.68" fill="#fff"/><polygon points="34.86 47.05 9.23 47.7 9.23 47.33 34.86 46.68 34.86 47.05" fill="#fff"/><polygon points="34.86 47.43 9.23 48.07 9.23 47.7 34.86 47.05 34.86 47.43" fill="#fff"/><polygon points="34.86 47.8 9.23 48.45 9.23 48.07 34.86 47.43 34.86 47.8" fill="#fff"/><polygon points="34.86 48.17 9.23 48.82 9.23 48.45 34.86 47.8 34.86 48.17" fill="#fff"/><polygon points="34.86 48.55 9.23 49.2 9.23 48.82 34.86 48.17 34.86 48.55" fill="#fff"/><polygon points="34.86 48.92 9.23 49.57 9.23 49.2 34.86 48.55 34.86 48.92" fill="#fff"/><polygon points="34.86 49.3 9.23 49.94 9.23 49.57 34.86 48.92 34.86 49.3" fill="#fff"/><polygon points="34.86 49.67 9.23 50.32 9.23 49.94 34.86 49.3 34.86 49.67" fill="#fff"/><polygon points="34.86 50.05 9.23 50.69 9.23 50.32 34.86 49.67 34.86 50.05" fill="#fff"/><polygon points="34.86 50.42 9.23 51.06 9.23 50.69 34.86 50.05 34.86 50.42" fill="#fff"/><polygon points="34.86 50.79 9.23 51.44 9.23 51.06 34.86 50.42 34.86 50.79" fill="#fff"/><polygon points="34.86 51.17 9.23 51.81 9.23 51.44 34.86 50.79 34.86 51.17" fill="#fff"/><polygon points="34.86 51.54 9.23 52.19 9.23 51.81 34.86 51.17 34.86 51.54" fill="#fff"/><polygon points="34.86 51.91 9.23 52.56 9.23 52.19 34.86 51.54 34.86 51.91" fill="#fff"/><polygon points="34.86 52.29 9.23 52.94 9.23 52.56 34.86 51.91 34.86 52.29" fill="#fff"/><polygon points="34.86 52.66 9.23 53.31 9.23 52.94 34.86 52.29 34.86 52.66" fill="#fff"/><polygon points="34.86 53.04 9.23 53.68 9.23 53.31 34.86 52.66 34.86 53.04" fill="#fff"/><polygon points="34.86 53.41 9.23 54.06 9.23 53.68 34.86 53.04 34.86 53.41" fill="#fff"/><polygon points="34.86 53.78 9.23 54.43 9.23 54.06 34.86 53.41 34.86 53.78" fill="#fff"/><polygon points="34.86 54.16 9.23 54.8 9.23 54.43 34.86 53.78 34.86 54.16" fill="#fff"/><polygon points="34.86 54.53 9.23 55.18 9.23 54.8 34.86 54.16 34.86 54.53" fill="#fff"/><polygon points="34.86 54.91 9.23 55.55 9.23 55.18 34.86 54.53 34.86 54.91" fill="#fff"/><polygon points="34.86 55.28 9.23 55.93 9.23 55.55 34.86 54.91 34.86 55.28" fill="#fff"/><polygon points="34.86 55.66 9.23 56.3 9.23 55.93 34.86 55.28 34.86 55.66" fill="#fff"/><polygon points="34.86 56.03 9.23 56.67 9.23 56.3 34.86 55.66 34.86 56.03" fill="#fff"/><polygon points="34.86 56.4 9.23 57.05 9.23 56.67 34.86 56.03 34.86 56.4" fill="#fff"/><polygon points="34.86 56.78 9.23 57.42 9.23 57.05 34.86 56.4 34.86 56.78" fill="#fff"/><polygon points="34.86 57.15 9.23 57.8 9.23 57.42 34.86 56.78 34.86 57.15" fill="#fff"/><polygon points="34.86 57.52 9.23 58.17 9.23 57.8 34.86 57.15 34.86 57.52" fill="#fff"/><polygon points="34.86 57.9 9.23 58.54 9.23 58.17 34.86 57.52 34.86 57.9" fill="#fff"/><polygon points="34.86 58.27 9.23 58.92 9.23 58.54 34.86 57.9 34.86 58.27" fill="#fff"/><polygon points="34.86 58.65 9.23 59.29 9.23 58.92 34.86 58.27 34.86 58.65" fill="#fff"/><polygon points="34.86 59.02 22.52 59.33 9.23 59.33 9.23 59.29 34.86 58.65 34.86 59.02" fill="#fff"/><polygon points="22.52 59.33 34.86 59.02 34.86 59.33 22.52 59.33" fill="#fff"/></g><path d="M45.49,46.56a21.22,21.22,0,0,1-3.61,5.86c-.27.31-.54.61-.82.9-.45.46-.92.91-1.41,1.33a15.44,15.44,0,0,1-2.49-.5,16.39,16.39,0,0,1-6.74-4.6l0,0a.08.08,0,0,0,0,0,15.66,15.66,0,0,1,15.13-2.93Z" fill="#fff"/><g clip-path="url(#clip-path-2)"><polygon points="33.22 45.76 30.36 45.9 30.36 45.76 33.22 45.76" fill="#fff"/><polygon points="40.68 45.76 30.36 46.26 30.36 45.9 33.22 45.76 40.68 45.76" fill="#fff"/><polygon points="45.49 45.89 30.36 46.63 30.36 46.26 40.68 45.76 45.49 45.76 45.49 45.89" fill="#fff"/><polygon points="45.49 46.25 30.36 47 30.36 46.63 45.49 45.89 45.49 46.25" fill="#fff"/><polygon points="45.49 46.62 30.36 47.37 30.36 47 45.49 46.25 45.49 46.62" fill="#fff"/><polygon points="45.49 46.99 30.36 47.74 30.36 47.37 45.49 46.62 45.49 46.99" fill="#fff"/><polygon points="45.49 47.36 30.36 48.11 30.36 47.74 45.49 46.99 45.49 47.36" fill="#fff"/><polygon points="45.49 47.73 30.36 48.47 30.36 48.11 45.49 47.36 45.49 47.73" fill="#fff"/><polygon points="45.49 48.09 30.36 48.84 30.36 48.47 45.49 47.73 45.49 48.09" fill="#fff"/><polygon points="45.49 48.46 30.36 49.21 30.36 48.84 45.49 48.09 45.49 48.46" fill="#fff"/><polygon points="45.49 48.83 30.36 49.58 30.36 49.21 45.49 48.46 45.49 48.83" fill="#fff"/><polygon points="45.49 49.2 30.36 49.95 30.36 49.58 45.49 48.83 45.49 49.2" fill="#fff"/><polygon points="45.49 49.57 30.36 50.32 30.36 49.95 45.49 49.2 45.49 49.57" fill="#fff"/><polygon points="45.49 49.94 30.36 50.68 30.36 50.32 45.49 49.57 45.49 49.94" fill="#fff"/><polygon points="45.49 50.3 30.36 51.05 30.36 50.68 45.49 49.94 45.49 50.3" fill="#fff"/><polygon points="45.49 50.67 30.36 51.42 30.36 51.05 45.49 50.3 45.49 50.67" fill="#fff"/><polygon points="45.49 51.04 30.36 51.79 30.36 51.42 45.49 50.67 45.49 51.04" fill="#fff"/><polygon points="45.49 51.41 30.36 52.16 30.36 51.79 45.49 51.04 45.49 51.41" fill="#fff"/><polygon points="45.49 51.78 30.36 52.53 30.36 52.16 45.49 51.41 45.49 51.78" fill="#fff"/><polygon points="45.49 52.15 30.36 52.89 30.36 52.53 45.49 51.78 45.49 52.15" fill="#fff"/><polygon points="45.49 52.52 30.36 53.26 30.36 52.89 45.49 52.15 45.49 52.52" fill="#fff"/><polygon points="45.49 52.88 30.36 53.63 30.36 53.26 45.49 52.52 45.49 52.88" fill="#fff"/><polygon points="45.49 53.25 30.36 54 30.36 53.63 45.49 52.88 45.49 53.25" fill="#fff"/><polygon points="45.49 53.62 30.36 54.37 30.36 54 45.49 53.25 45.49 53.62" fill="#fff"/><polygon points="45.49 53.99 32.17 54.65 30.36 54.65 30.36 54.37 45.49 53.62 45.49 53.99" fill="#fff"/><polygon points="32.17 54.65 45.49 53.99 45.49 54.65 32.17 54.65" fill="#fff"/></g><path d="M50.49,37.56c-1.45.35-2.89.74-4.34,1.12s-2.93.76-4.36,1.06c-3,.65-5.93,1.11-8.95,1.47a.82.82,0,0,0-.7.73.8.8,0,0,0,.72.88,43.18,43.18,0,0,0,4.69.22A46.19,46.19,0,0,0,49,41.65a25.83,25.83,0,0,1-1.63,5.66,23.7,23.7,0,0,1-4,6.41c-.29.34-.59.66-.9,1a23.4,23.4,0,0,1-2.22,2,20.34,20.34,0,0,1-22.5,2.16A26.25,26.25,0,0,1,7.6,49.16a25.74,25.74,0,0,1-2.29-5,.91.91,0,0,0-1.75.45,25.18,25.18,0,0,0,9.12,15.29A23.94,23.94,0,0,0,25.5,64.79C39.8,66,52.63,53.4,52.72,39.27A1.69,1.69,0,0,0,50.49,37.56Z" fill="#fff"/><path d="M42.45,11.56A30.07,30.07,0,0,0,39.63,2.4c-.3-.64-.61-1.26-.91-1.89a.9.9,0,0,0-1.65.73c.27.67.89,2.18,1.13,2.85a38,38,0,0,1,1.46,4.77,11.55,11.55,0,0,1,.28,4.58c-.36,1.74-1.55,2.27-3.23,2.15a24.72,24.72,0,0,1-4.72-1C26.66,13,20.59,11.36,15,13.1a18,18,0,0,0-9.08,6.47,11.41,11.41,0,0,0-2.15,4.34c-.36,1.65.4,3.34,2.24,3.46a7.14,7.14,0,0,0,3-.8c1.86-.84,3.67-1.78,5.54-2.48,5.09-2,9.54-2.06,14.13.95.52.33,1,.69,1.51,1.07a15.77,15.77,0,0,0-13.88,1.32c-1.77,1-5.12,3.4-4.84,5.73s3.24,2,4.88,2c1.35-.07,2.72-.21,4-.19a4.25,4.25,0,0,1,1.77.28h0s0,0,0,0a.77.77,0,0,1-.06.51,9,9,0,0,1-2.42,2.78.68.68,0,0,0,.83,1.08,14.94,14.94,0,0,0,1.69-1.33c1.12-1,2.51-2.78,1.35-4.24-1.13-1.29-3.66-1.13-5.2-1.19a33.91,33.91,0,0,1-3.93-.12,2.3,2.3,0,0,1-.28-.06h0c1.78-2.25,5.94-4.16,8.8-4.37,3.17-.28,6.21.87,9.08,2.21a5.36,5.36,0,0,0,2.83.73,2,2,0,0,0,1.66-2.32c-.4-2.51-3.92-5.44-6-6.75a16.57,16.57,0,0,0-13.07-2.55,34.59,34.59,0,0,0-8.1,3c-.63.29-1.24.61-1.86.88a12,12,0,0,1,1.1-1.81,15.76,15.76,0,0,1,4-3.8c4.39-2.95,9.68-2.57,14.63-1.41,2.73.6,5.32,1.46,8.17,1.83,1.94.25,4.3,0,5.67-1.61a5.42,5.42,0,0,0,1.24-2.69l.08-.61,0-.15A14,14,0,0,0,42.45,11.56ZM13.79,32.51l0,0,.05,0Z" fill="#fff"/><path d="M83.86,25.15a6.79,6.79,0,0,1,.83,3.46v2.31a6.71,6.71,0,0,1-1.83,4.94A6.61,6.61,0,0,1,78,37.71h-7.2V9.27h6.83a6.62,6.62,0,0,1,4.92,1.85,6.74,6.74,0,0,1,1.82,4.93v1.51A5.74,5.74,0,0,1,81.44,23,5.35,5.35,0,0,1,83.86,25.15Zm-8.8-11.82v7.72H77a3.15,3.15,0,0,0,2.3-.75A3.14,3.14,0,0,0,80,18V16a2.4,2.4,0,0,0-2.64-2.64Zm5.32,14.83a2.68,2.68,0,0,0-3-3.05H75.06v8.54h2.68A2.4,2.4,0,0,0,80.38,31Z" fill="#fff"/><path d="M88.59,9.27h12.23v4.06H92.9v7.92h6.29v4.07H92.9v8.33h7.92v4.06H88.59Z" fill="#fff"/><path d="M113.33,31.41H108.7l-.93,6.3h-4.31l4.71-28.44h5.77l4.72,28.44h-4.39Zm-.57-4.14L111,15.36l-1.75,11.91Z" fill="#fff"/><path d="M122,9.27h4.75l5.48,19.09V9.27h4.23V37.71H131.9l-5.69-18.2v18.2H122Z" fill="#fff"/><path d="M69.37,43.14H83.11v4.07H78.39V71.58h-4.3V47.21H69.37Z" fill="#fff"/><path d="M86.44,71.58V43.14h4.3v12h5.12v-12h4.31V71.58H95.86V59.19H90.74V71.58Z" fill="#fff"/><path d="M104.88,43.14h12.23v4.07h-7.92v7.92h6.3v4.06h-6.3v8.33h7.92v4.06H104.88Z" fill="#fff"/><path d="M130.4,71.58l-3.13-11.74H125V71.58h-4.3V43.14h6.74A6.62,6.62,0,0,1,132.39,45a6.73,6.73,0,0,1,1.83,4.94v3.13a7.37,7.37,0,0,1-.78,3.45,5.73,5.73,0,0,1-2.19,2.36l3.62,12.71ZM125,55.78h2.24a2.4,2.4,0,0,0,2.64-2.64V49.85a2.4,2.4,0,0,0-2.64-2.64H125Z" fill="#fff"/><path d="M138.4,43.14h12.23v4.07h-7.92v7.92H149v4.06h-6.29v8.33h7.92v4.06H138.4Z" fill="#fff"/></svg>