<svg xmlns="http://www.w3.org/2000/svg" xmlns:xlink="http://www.w3.org/1999/xlink" viewBox="0 0 207.98 102.81"><defs><clipPath id="clip-path"><path d="M48.75,81.54A26,26,0,0,1,38.5,83.68a24.92,24.92,0,0,1-12.08-3.11h0A34,34,0,0,1,13.17,67.91l-.1-.18a22.12,22.12,0,0,1,25.75,2.08,21.75,21.75,0,0,1,2,1.94c.14.17.42.48.81.89h0a22.14,22.14,0,0,0,7.53,5.5,21.08,21.08,0,0,1-3.28.14,24.15,24.15,0,0,1-11.07-3.11,19.79,19.79,0,0,0,9.5,5.74A18.35,18.35,0,0,0,48.75,81.54Z" fill="none"/></clipPath><clipPath id="clip-path-2"><path d="M64.14,65.66a30.51,30.51,0,0,1-5.07,8.23c-.39.44-.78.86-1.16,1.26-.63.64-1.3,1.27-2,1.9a20.12,20.12,0,0,1-3.52-.7c-4.79-1.47-8.48-5.33-9.5-6.48h0l0-.06A22.07,22.07,0,0,1,64.18,65.7Z" fill="none"/></clipPath></defs><g id="Layer_2" data-name="Layer 2"><g id="UI"><g id="Group_1" data-name="Group 1"><g id="Group_5" data-name="Group 5"><g id="Group_4" data-name="Group 4"><g id="Group_2" data-name="Group 2"><g id="Artboard_17" data-name="Artboard 17"><g id="Path_1" data-name="Path 1"><path d="M76.84,91.62c-2.32-2.07-6.6-2.86-9.62-3.25A1.41,1.41,0,0,0,66.44,91l2.66,1.34c.88.44,1.73.89,2.54,1.36l.68.44a19,19,0,0,1-3.88,1.23,130.54,130.54,0,0,1-23.58,2.43,153.56,153.56,0,0,1-35.4-3.24,21.58,21.58,0,0,1-3.13-1c1.94-1,4-1.75,6.1-2.7a1.2,1.2,0,0,0,.6-1.6,1.21,1.21,0,0,0-1.11-.71,33.12,33.12,0,0,0-6.28.72,14.69,14.69,0,0,0-2.92,1c-1.9.87-3.28,2.7-2.49,4.85S3.16,98,5,98.64a85.17,85.17,0,0,0,15.4,3.06,179.53,179.53,0,0,0,18.4,1.1A182.56,182.56,0,0,0,57.21,102a81.54,81.54,0,0,0,15.44-2.6,9.46,9.46,0,0,0,4.48-2.34A3.8,3.8,0,0,0,77,91.73l-.11-.1Zm-72,3-.06.06h0v-.07s.07-.08.12-.13l0,0a.75.75,0,0,1,0,.16Zm68.42.4,0-.09a.8.8,0,0,1,.15.17c0,.05,0,.07-.1-.08Z" fill="#bc6e19"/></g><g id="Path_2" data-name="Path 2"><path d="M87.05,57.85a6.81,6.81,0,0,0-7.6-2.45,7.08,7.08,0,0,0-4.2,4.73,1.07,1.07,0,0,0,1.66,1.15l.29-.21a9.12,9.12,0,0,1,1.9-1.49,3,3,0,0,1,3.94.69,4,4,0,0,1,.86,2.43,15.59,15.59,0,0,1-.59,4.85,20.08,20.08,0,0,1-1,2.47,1.14,1.14,0,0,0,.06,1.13,1.12,1.12,0,0,0,1.55.34h0a8.87,8.87,0,0,0,2.41-2.32,10.73,10.73,0,0,0,1.76-3.93A8.57,8.57,0,0,0,87.05,57.85Z" fill="#bc6e19"/></g><g id="Path_3" data-name="Path 3"><g clip-path="url(#clip-path)"><polygon points="49.18 64.04 13.07 64.29 13.07 62.81 49.18 62.81 49.18 64.04" fill="#9e6f41"/><polygon points="49.18 64.56 13.07 64.81 13.07 64.29 49.18 64.04 49.18 64.56" fill="#9e6f41"/><polygon points="49.18 65.09 13.07 65.34 13.07 64.81 49.18 64.56 49.18 65.09" fill="#9d6e41"/><polygon points="49.18 65.62 13.07 65.87 13.07 65.34 49.18 65.09 49.18 65.62" fill="#9c6e40"/><polygon points="49.18 66.14 13.07 66.39 13.07 65.87 49.18 65.62 49.18 66.14" fill="#9b6d40"/><polygon points="49.18 66.67 13.07 66.92 13.07 66.39 49.18 66.14 49.18 66.67" fill="#9a6c3f"/><polygon points="49.18 67.2 13.07 67.45 13.07 66.92 49.18 66.67 49.18 67.2" fill="#996b3f"/><polygon points="49.18 67.73 13.07 67.97 13.07 67.45 49.18 67.2 49.18 67.73" fill="#986b3e"/><polygon points="49.18 68.25 13.07 68.5 13.07 67.97 49.18 67.73 49.18 68.25" fill="#976a3e"/><polygon points="49.18 68.78 13.07 69.03 13.07 68.5 49.18 68.25 49.18 68.78" fill="#96693e"/><polygon points="49.18 69.31 13.07 69.56 13.07 69.03 49.18 68.78 49.18 69.31" fill="#95683d"/><polygon points="49.18 69.83 13.07 70.08 13.07 69.56 49.18 69.31 49.18 69.83" fill="#94683d"/><polygon points="49.18 70.36 13.07 70.61 13.07 70.08 49.18 69.83 49.18 70.36" fill="#93673c"/><polygon points="49.18 70.89 13.07 71.14 13.07 70.61 49.18 70.36 49.18 70.89" fill="#92663c"/><polygon points="49.18 71.42 13.07 71.67 13.07 71.14 49.18 70.89 49.18 71.42" fill="#91653c"/><polygon points="49.18 71.94 13.07 72.19 13.07 71.67 49.18 71.42 49.18 71.94" fill="#90653b"/><polygon points="49.18 72.47 13.07 72.72 13.07 72.19 49.18 71.94 49.18 72.47" fill="#8f643b"/><polygon points="49.18 73 13.07 73.25 13.07 72.72 49.18 72.47 49.18 73" fill="#8e633a"/><polygon points="49.18 73.52 13.07 73.77 13.07 73.25 49.18 73 49.18 73.52" fill="#8d623a"/><polygon points="49.18 74.05 13.07 74.3 13.07 73.77 49.18 73.52 49.18 74.05" fill="#8c6239"/><polygon points="49.18 74.58 13.07 74.83 13.07 74.3 49.18 74.05 49.18 74.58" fill="#8b6139"/><polygon points="49.18 75.11 13.07 75.35 13.07 74.83 49.18 74.58 49.18 75.11" fill="#896039"/><polygon points="49.18 75.63 13.07 75.88 13.07 75.35 49.18 75.11 49.18 75.63" fill="#886038"/><polygon points="49.18 76.16 13.07 76.41 13.07 75.88 49.18 75.63 49.18 76.16" fill="#875f38"/><polygon points="49.18 76.69 13.07 76.94 13.07 76.41 49.18 76.16 49.18 76.69" fill="#865e37"/><polygon points="49.18 77.21 13.07 77.46 13.07 76.94 49.18 76.69 49.18 77.21" fill="#855d37"/><polygon points="49.18 77.74 13.07 77.99 13.07 77.46 49.18 77.21 49.18 77.74" fill="#845d36"/><polygon points="49.18 78.27 13.07 78.52 13.07 77.99 49.18 77.74 49.18 78.27" fill="#835c36"/><polygon points="49.18 78.79 13.07 79.04 13.07 78.52 49.18 78.27 49.18 78.79" fill="#825b36"/><polygon points="49.18 79.32 13.07 79.57 13.07 79.04 49.18 78.79 49.18 79.32" fill="#815a35"/><polygon points="49.18 79.85 13.07 80.1 13.07 79.57 49.18 79.32 49.18 79.85" fill="#805a35"/><polygon points="49.18 80.38 13.07 80.63 13.07 80.1 49.18 79.85 49.18 80.38" fill="#7f5934"/><polygon points="49.18 80.9 13.07 81.15 13.07 80.63 49.18 80.38 49.18 80.9" fill="#7e5834"/><polygon points="49.18 81.43 13.07 81.68 13.07 81.15 49.18 80.9 49.18 81.43" fill="#7d5734"/><polygon points="49.18 81.96 13.07 82.21 13.07 81.68 49.18 81.43 49.18 81.96" fill="#7c5733"/><polygon points="49.18 82.48 13.07 82.73 13.07 82.21 49.18 81.96 49.18 82.48" fill="#7b5633"/><polygon points="49.18 83.01 13.07 83.26 13.07 82.73 49.18 82.48 49.18 83.01" fill="#7a5532"/><polygon points="49.18 83.54 27.86 83.69 13.07 83.69 13.07 83.26 49.18 83.01 49.18 83.54" fill="#795432"/><polygon points="27.86 83.69 49.18 83.54 49.18 83.69 27.86 83.69" fill="#785431"/></g></g><g id="Path_4" data-name="Path 4"><g clip-path="url(#clip-path-2)"><polygon points="48.64 63.23 42.85 63.33 42.85 63.23 48.64 63.23" fill="#e0bb93"/><polygon points="64.18 63.48 42.85 63.85 42.85 63.33 48.64 63.23 64.18 63.23 64.18 63.48" fill="#e0ba92"/><polygon points="64.18 64 42.85 64.37 42.85 63.85 64.18 63.48 64.18 64" fill="#dfba91"/><polygon points="64.18 64.52 42.85 64.89 42.85 64.37 64.18 64 64.18 64.52" fill="#dfb990"/><polygon points="64.18 65.04 42.85 65.41 42.85 64.89 64.18 64.52 64.18 65.04" fill="#dfb88f"/><polygon points="64.18 65.56 42.85 65.93 42.85 65.41 64.18 65.04 64.18 65.56" fill="#deb88e"/><polygon points="64.18 66.08 42.85 66.45 42.85 65.93 64.18 65.56 64.18 66.08" fill="#deb78d"/><polygon points="64.18 66.6 42.85 66.97 42.85 66.45 64.18 66.08 64.18 66.6" fill="#deb68c"/><polygon points="64.18 67.11 42.85 67.48 42.85 66.97 64.18 66.6 64.18 67.11" fill="#deb68b"/><polygon points="64.18 67.63 42.85 68 42.85 67.48 64.18 67.11 64.18 67.63" fill="#ddb58a"/><polygon points="64.18 68.15 42.85 68.52 42.85 68 64.18 67.63 64.18 68.15" fill="#ddb489"/><polygon points="64.18 68.67 42.85 69.04 42.85 68.52 64.18 68.15 64.18 68.67" fill="#ddb488"/><polygon points="64.18 69.19 42.85 69.56 42.85 69.04 64.18 68.67 64.18 69.19" fill="#dcb387"/><polygon points="64.18 69.71 42.85 70.08 42.85 69.56 64.18 69.19 64.18 69.71" fill="#dcb386"/><polygon points="64.18 70.23 42.85 70.6 42.85 70.08 64.18 69.71 64.18 70.23" fill="#dcb284"/><polygon points="64.18 70.75 42.85 71.11 42.85 70.6 64.18 70.23 64.18 70.75" fill="#dbb183"/><polygon points="64.18 71.26 42.85 71.63 42.85 71.11 64.18 70.75 64.18 71.26" fill="#dbb182"/><polygon points="64.18 71.78 42.85 72.15 42.85 71.63 64.18 71.26 64.18 71.78" fill="#dbb081"/><polygon points="64.18 72.3 42.85 72.67 42.85 72.15 64.18 71.78 64.18 72.3" fill="#daaf80"/><polygon points="64.18 72.82 42.85 73.19 42.85 72.67 64.18 72.3 64.18 72.82" fill="#daaf7f"/><polygon points="64.18 73.34 42.85 73.71 42.85 73.19 64.18 72.82 64.18 73.34" fill="#daae7e"/><polygon points="64.18 73.86 42.85 74.23 42.85 73.71 64.18 73.34 64.18 73.86" fill="#daad7d"/><polygon points="64.18 74.38 42.85 74.75 42.85 74.23 64.18 73.86 64.18 74.38" fill="#d9ad7c"/><polygon points="64.18 74.89 42.85 75.26 42.85 74.75 64.18 74.38 64.18 74.89" fill="#d9ac7b"/><polygon points="64.18 75.41 42.85 75.78 42.85 75.26 64.18 74.89 64.18 75.41" fill="#d9ab7a"/><polygon points="64.18 75.93 42.85 76.3 42.85 75.78 64.18 75.41 64.18 75.93" fill="#d8ab79"/><polygon points="64.18 76.45 42.85 76.82 42.85 76.3 64.18 75.93 64.18 76.45" fill="#d8aa78"/><polygon points="42.85 76.82 64.18 76.45 64.18 77.05 42.85 77.05 42.85 76.82" fill="#d8aa78"/></g></g><g id="Path_5" data-name="Path 5"><path d="M71.19,53c-2.06.5-4.08,1-6.12,1.58s-4.14,1-6.14,1.5c-4.18.92-8.37,1.56-12.62,2.08a1.14,1.14,0,0,0,0,2.27,61,61,0,0,0,6.62.31,65.37,65.37,0,0,0,16.12-1.94,37.73,37.73,0,0,1-2.3,8,33.92,33.92,0,0,1-5.57,9c-.41.47-.83.93-1.27,1.38A34,34,0,0,1,56.75,80c-9,7.08-21.21,8.77-31.72,3A37,37,0,0,1,10.69,69.34a35.1,35.1,0,0,1-3.22-7.09A1.28,1.28,0,1,0,5,62.8a.24.24,0,0,0,0,.08A35.57,35.57,0,0,0,17.86,84.45a33.8,33.8,0,0,0,18.07,7c20.15,1.73,38.24-16,38.37-36a2.39,2.39,0,0,0-2.17-2.59,2.36,2.36,0,0,0-.95.1Z" fill="#bc6e19"/></g><g id="Path_6" data-name="Path 6"><path d="M59.85,16.32c-.44-4.51-2.16-8.8-4-12.91C55.44,2.51,55,1.63,54.6.75a1.27,1.27,0,0,0-2.34,1c.38.94,1.27,3.08,1.59,4a51,51,0,0,1,2.06,6.75,16.14,16.14,0,0,1,.4,6.45c-.52,2.45-2.18,3.17-4.56,3a34.43,34.43,0,0,1-6.65-1.43c-7.52-2.23-16.07-4.56-24-2.1a25.25,25.25,0,0,0-12.8,9.11,16.34,16.34,0,0,0-3,6.13c-.51,2.32.58,4.7,3.17,4.87a9.82,9.82,0,0,0,4.24-1.13c2.63-1.18,5.18-2.53,7.81-3.5C27.69,31.17,34,31.06,40.43,35.3a24.77,24.77,0,0,1,2.13,1.51c-6.79-2.29-13.07-2-19.57,1.85-2.49,1.47-7.22,4.8-6.83,8.09.58,3.12,4.58,2.83,6.89,2.74,1.9-.09,3.8-.29,5.7-.26a5.88,5.88,0,0,1,2.49.4h0a.93.93,0,0,1-.09.71,12.71,12.71,0,0,1-3.4,3.93,1,1,0,0,0,1.16,1.52,22.89,22.89,0,0,0,2.39-1.9c1.57-1.38,3.53-3.92,1.9-6-1.59-1.83-5.16-1.59-7.33-1.66a46.54,46.54,0,0,1-5.54-.17A2.33,2.33,0,0,1,20,46h0c2.53-3.16,8.37-5.87,12.4-6.17,4.47-.41,8.8,1.18,12.81,3.08,1.21.51,2.53,1.27,4,1a2.86,2.86,0,0,0,2.34-3.28c-.57-3.52-5.54-7.67-8.4-9.5a23.4,23.4,0,0,0-18.42-3.6,49.52,49.52,0,0,0-11.4,4.18c-.89.41-1.75.85-2.62,1.26a16.81,16.81,0,0,1,1.55-2.53,21.87,21.87,0,0,1,5.66-5.36c6.18-4.2,13.61-3.67,20.6-2,3.85.83,7.5,2.06,11.54,2.58,2.73.36,6.07,0,8-2.26a7.85,7.85,0,0,0,1.75-3.8l.1-.85v-.22A18.27,18.27,0,0,0,59.85,16.32ZM19.45,45.83h0l.06,0Z" fill="#bc6e19"/></g><g id="BEAN" style="isolation:isolate"><g style="isolation:isolate"><path d="M122.63,30.53a8.92,8.92,0,0,1,1.11,4.59v3.07a8.94,8.94,0,0,1-2.43,6.57,8.8,8.8,0,0,1-6.53,2.45h-9.56V9.41h9.07a8.75,8.75,0,0,1,6.53,2.46,8.92,8.92,0,0,1,2.43,6.56v2c0,3.38-1.27,5.79-3.83,7.23A7.07,7.07,0,0,1,122.63,30.53ZM110.94,14.81V25.07h2.54a4.14,4.14,0,0,0,3-1,4.12,4.12,0,0,0,1-3.05v-2.7a3.52,3.52,0,0,0-.92-2.59,3.5,3.5,0,0,0-2.59-.92ZM118,34.52a4.18,4.18,0,0,0-1-3.05,4.19,4.19,0,0,0-3-1h-3V41.81h3.57A3.2,3.2,0,0,0,118,38.3Z" fill="#bc6e19"/></g><g style="isolation:isolate"><path d="M128.92,9.41h16.26v5.4H134.65V25.34H143v5.4h-8.37V41.81h10.53v5.4H128.92Z" fill="#bc6e19"/></g><g style="isolation:isolate"><path d="M161.81,38.84h-6.16l-1.24,8.37h-5.72L155,9.41h7.67l6.26,37.8h-5.83Zm-.76-5.51-2.32-15.82-2.32,15.82Z" fill="#bc6e19"/><path d="M173.31,9.41h6.32l7.29,25.38V9.41h5.62v37.8h-6L178.93,23V47.21h-5.62Z" fill="#bc6e19"/></g></g><g id="tHERE" style="isolation:isolate"><g style="isolation:isolate"><path d="M102,56.87H119.9v5.3h-6.15V94h-5.62V62.17H102Z" fill="#9e6f41"/><path d="M124.24,94V56.87h5.62V72.51h6.68V56.87h5.62V94h-5.62V77.81h-6.68V94Z" fill="#9e6f41"/><path d="M148.31,56.87h15.95v5.3H153.92V72.51h8.22v5.3h-8.22V88.67h10.34V94H148.31Z" fill="#9e6f41"/><path d="M181.59,94l-4.08-15.31h-2.92V94H169V56.87h8.79a8.62,8.62,0,0,1,6.42,2.42,8.73,8.73,0,0,1,2.38,6.43v4.09a9.75,9.75,0,0,1-1,4.5,7.52,7.52,0,0,1-2.86,3.08L187.42,94Zm-7-20.61h2.92A3.13,3.13,0,0,0,181,69.91V65.62a3.13,3.13,0,0,0-3.44-3.45h-2.92Z" fill="#9e6f41"/><path d="M192,56.87H208v5.3H197.65V72.51h8.21v5.3h-8.21V88.67H208V94H192Z" fill="#9e6f41"/></g></g></g></g></g></g></g></g></g></svg>