<svg xmlns="http://www.w3.org/2000/svg" viewBox="0 0 138.39 159.07"><g id="Layer_2" data-name="Layer 2"><g id="UI"><g id="Artboard_27" data-name="Artboard 27"><path id="Path_17" data-name="Path 17" d="M93,99.26a50.84,50.84,0,0,0,9.15-.19,46.22,46.22,0,0,0,6.51-1.16,25.59,25.59,0,0,1-.65,4.68c0,.13-.06.28-.1.4-2.52,10.22-12.05,17.28-22.37,14.82a23,23,0,0,1-7.77-3.37,36.06,36.06,0,0,1-9.16-10,37.7,37.7,0,0,1-2.1-4,.75.75,0,0,0-1.44.41h0a28.23,28.23,0,0,0,2.47,6.66A26.28,26.28,0,0,0,77.17,118c10.5,7.09,23.21,4.41,30-5a26.82,26.82,0,0,0,4.88-12.76,27.83,27.83,0,0,0,.12-4.83,2,2,0,0,0-2-1.9,1.59,1.59,0,0,0-.43.06,66.78,66.78,0,0,1-16.92,3.78C91.74,97.48,91.89,99.14,93,99.26Z" fill="#fff"/><path id="Path_18" data-name="Path 18" d="M116.3,122.41c-1.77-1.55-4.8-2.16-6.92-2.48-1.08-.13-1.4,1.42-.37,2l1.95,1c.64.34,1.26.67,1.84,1l.5.32a11.17,11.17,0,0,1-2.65.89,83.24,83.24,0,0,1-16.14,1.58,101.25,101.25,0,0,1-24.34-2.67,16.35,16.35,0,0,1-2.16-.78c1.22-.73,2.57-1.24,3.93-1.92.75-.36.4-1.68-.51-1.68a19.56,19.56,0,0,0-4.18.48,8.41,8.41,0,0,0-1.9.67A2.61,2.61,0,0,0,64,124.24a.2.2,0,0,0,0,.08A5.66,5.66,0,0,0,67.49,127a57.59,57.59,0,0,0,10.62,2.36,117.59,117.59,0,0,0,25.23.61,50.26,50.26,0,0,0,10.55-1.77,5.8,5.8,0,0,0,3-1.69A3,3,0,0,0,116.3,122.41ZM114,124.89l0-.07.11.13s0,0-.07,0Z" fill="#fff"/><path id="Path_19" data-name="Path 19" d="M121.24,97.32c-1.36-1.7-3.67-2.6-5.5-1.84a4.12,4.12,0,0,0-2,1.75h0A5.18,5.18,0,0,0,113.1,99a.88.88,0,0,0,.54,1,.66.66,0,0,0,.69-.09l.19-.16a5.51,5.51,0,0,1,1.26-1.1,2.13,2.13,0,0,1,2.82.52,3.29,3.29,0,0,1,.76,1.82,11.81,11.81,0,0,1-.09,3.61,14.8,14.8,0,0,1-.52,1.84.93.93,0,0,0,.11.84.81.81,0,0,0,1.12.26,5.66,5.66,0,0,0,1.55-1.72,7.48,7.48,0,0,0,1-2.93A7.16,7.16,0,0,0,121.24,97.32Z" fill="#fff"/><path id="Path_20" data-name="Path 20" d="M78.44,113.13a21.4,21.4,0,0,0,7.25,3.14,15.91,15.91,0,0,0,3.64.45c7.66.07,14.49-5.37,16.85-13.36a18,18,0,0,1-6.84,1.69c-7,.29-10.58-3.7-16.85-4.48-3-.37-7.32-.1-12.66,3.21a30.68,30.68,0,0,0,4.54,5.79A29.92,29.92,0,0,0,78.44,113.13Z" fill="#fff"/><path id="Path_21" data-name="Path 21" d="M24.3.06a20.87,20.87,0,0,0-9.67,3.26,20.05,20.05,0,0,0-9,14c-.09.49-.18,2-.24,3.36s-1.31,33-2.79,70.35S0,159,0,159s31.17.07,69.23.07h69.16v-.31c0-.31-9.93-117.82-10-118.9l-.06-.52.29-.1a15.34,15.34,0,0,0,2.74-1.46,16.85,16.85,0,0,0,3.41-3.39,22.36,22.36,0,0,0,3.45-10,50.85,50.85,0,0,0,0-8.37,23.61,23.61,0,0,0-2.36-8.22A13.6,13.6,0,0,0,124.27.1C123.57,0,110.8,0,84.14,0,48.08,0,45,0,45,.14s-.07.15-.4.1C43,0,41.78,0,33.62,0ZM44.23,6.44a7.09,7.09,0,0,1,3.82,2c1.77,1.74,2.79,4.27,3.26,8.08a43,43,0,0,1,0,7.35c-.57,4.59-2,7.46-4.36,9a8.41,8.41,0,0,1-5.29,1.22,16.55,16.55,0,0,1-2-.18c-3.66-.81-5.29-4.33-5.52-11.8l-.06-1.89-3.14,0H27.82l.06,2a33.6,33.6,0,0,0,.91,7.68,14.65,14.65,0,0,0,3.45,6.73,10.92,10.92,0,0,0,3,2.29A15.08,15.08,0,0,0,38.45,40c.46.08.56.13.56.28s7.45,111.27,7.51,111.94l.06.57H28.93V82.18H22.72v70.59H6.45l0-.79c0-.43,1.22-30.44,2.65-66.68s2.61-66.18,2.65-66.53a14.44,14.44,0,0,1,1.43-4.85A14.09,14.09,0,0,1,23.94,6.36c.15,0,4.61,0,9.91-.05,8.43,0,9.74,0,10.39.13Zm80.8,0c3.61.75,5.88,3.66,6.73,8.67a36.7,36.7,0,0,1,.2,8.7c-.72,5.88-2.89,9.1-6.78,10.07-.57.15-3,.16-35.8.18l-35.18,0,.33-.52a23.58,23.58,0,0,0,3-9.2,46.75,46.75,0,0,0,.17-6.9A24.43,24.43,0,0,0,54.74,7.07a6.72,6.72,0,0,1-.4-.75s15.72,0,35,0c33.77,0,35,0,35.75.18ZM65.3,40.57c0,.15.47,7.66,1,16.73s1,16.56,1,16.68v.21h41.7l-.06-.7c0-.38-.5-7.8-1-16.49s-1-16-1-16.24l0-.4h15.19l0,.2c0,.12,2.15,25.2,4.74,55.73s4.7,55.77,4.73,56l.06.48H52.79v-.25c0-.18-7.07-105.6-7.49-111.81l0-.38h20Zm35.39-.13c0,.06.41,6.23.86,13.71s.86,13.65.86,13.7-3,.12-14.59.12H73.22v-.32c0-.39-1.58-25.85-1.66-26.72l-.06-.6H86.09c11.61,0,14.59,0,14.59.11Z" fill="#fff"/></g></g></g></svg>