<svg xmlns="http://www.w3.org/2000/svg" viewBox="0 0 122.01 138.82"><g id="Layer_2" data-name="Layer 2"><g id="UI"><g id="Artboard_28" data-name="Artboard 28"><path id="Path_22" data-name="Path 22" d="M63.86,80.49a108,108,0,0,0,18.25-.38,99.51,99.51,0,0,0,13-2.17,49.62,49.62,0,0,1-2.11,8.67l-.28.77c-6.85,19-27.14,32.4-47.39,28a43.44,43.44,0,0,1-15.07-6.22,53.94,53.94,0,0,1-8-7,52.24,52.24,0,0,1-8.65-11.61,59.26,59.26,0,0,1-3.49-7.6,1.57,1.57,0,0,0-3,.76A45.11,45.11,0,0,0,10.83,96.2c4.22,8.93,9.29,14.4,17.56,19.69,19.9,13.17,45.92,7.85,61.16-9.85a54,54,0,0,0,11.94-23.75,52.14,52.14,0,0,0,1.13-10,3.69,3.69,0,0,0-4.53-2.39,148.41,148.41,0,0,1-34.26,7,1.76,1.76,0,0,0,0,3.51Z" fill="#fff"/><path id="Path_23" data-name="Path 23" d="M105.93,123.38c-3.21-2.85-9.1-3.94-13.27-4.48a1.95,1.95,0,0,0-1.08,3.67l3.68,1.84c1.2.61,2.37,1.22,3.45,1.88.32.2.64.38.94.6a25.81,25.81,0,0,1-5.37,1.7c-10.61,2.3-21.63,3-32.5,3.35A212.13,212.13,0,0,1,13,127.47a32,32,0,0,1-4.28-1.42c2.89-1.54,5.93-2.57,9.05-4,.91-1.57-.11-2.91-1.34-2.89a44.87,44.87,0,0,0-8.64,1,20.53,20.53,0,0,0-4,1.32c-2.64,1.2-4.5,3.73-3.42,6.69s4,4,6.6,4.93a117.19,117.19,0,0,0,21.23,4.22,246.85,246.85,0,0,0,25.35,1.51,249.79,249.79,0,0,0,25.37-1.05c7.17-.7,14.32-1.5,21.29-3.59,2.21-.7,4.44-1.36,6.17-3.22a5.21,5.21,0,0,0-.18-7.36Zm-5,4.64s0-.08-.07-.13.14.15.2.23,0,.11-.17-.1Z" fill="#fff"/><path id="Path_24" data-name="Path 24" d="M120,76.83a9.4,9.4,0,0,0-10.46-3.39,9.17,9.17,0,0,0-4.19,3.24h0a10.53,10.53,0,0,0-1.6,3.28,1.46,1.46,0,0,0,.89,1.78,1.38,1.38,0,0,0,1.37-.18l.4-.28a12.59,12.59,0,0,1,2.66-2,4.19,4.19,0,0,1,5.44,1,5.42,5.42,0,0,1,1.17,3.35,21.22,21.22,0,0,1-.8,6.68,28.37,28.37,0,0,1-1.34,3.41,1.56,1.56,0,0,0,2.22,2,12.87,12.87,0,0,0,3.34-3.2A14.86,14.86,0,0,0,121.51,87C122.41,83.66,122.2,79.72,120,76.83Z" fill="#fff"/><path id="Path_25" data-name="Path 25" d="M9.79,53.15c2,.11,4.05-.78,5.86-1.53,3.61-1.63,7.14-3.45,10.76-4.82,9.89-3.84,18.53-4,27.46,1.85,1,.65,2,1.34,2.92,2.08-9.36-3.15-18-2.71-27,2.57-3.42,2-9.95,6.6-9.4,11.13.8,4.29,6.31,3.89,9.5,3.77,2.63-.12,5.27-.38,7.85-.36a8,8,0,0,1,3.43.55h0a1.29,1.29,0,0,1-.12,1c-1,2.17-2.92,3.84-4.7,5.41a1.33,1.33,0,0,0-.16,1.87,1.31,1.31,0,0,0,1.77.23,30.37,30.37,0,0,0,3.29-2.58c2.18-1.92,4.86-5.41,2.61-8.25-2.18-2.49-7.11-2.2-10.09-2.3a63.09,63.09,0,0,1-7.65-.25l-.52-.1v0c3.45-4.38,11.53-8.1,17.1-8.51,6.13-.53,12.08,1.69,17.64,4.29,1.67.7,3.54,1.74,5.51,1.43a3.94,3.94,0,0,0,3.23-4.52c-.75-4.88-7.6-10.59-11.55-13.13a32.21,32.21,0,0,0-25.4-5,68.39,68.39,0,0,0-15.73,5.76c-1.23.57-2.42,1.18-3.62,1.71A23.35,23.35,0,0,1,15,41.94a30.22,30.22,0,0,1,7.78-7.39c8.54-5.75,18.8-5,28.45-2.74C56.48,33,61.5,34.64,67,35.36c3.77.49,8.37,0,11-3.12A10.7,10.7,0,0,0,80.48,27l.15-1.17,0-.3a22.89,22.89,0,0,0,0-3.1c-.6-6.22-3-12.14-5.5-17.81C74.57,3.4,74,2.18,73.39,1a1.76,1.76,0,0,0-3.21,1.41c.52,1.29,1.73,4.25,2.18,5.55a73.29,73.29,0,0,1,2.84,9.26,22.64,22.64,0,0,1,.54,8.9c-.72,3.36-3,4.4-6.28,4.16a48.71,48.71,0,0,1-9.17-1.92c-10.36-3.07-22.15-6.27-33-2.89A35,35,0,0,0,9.6,38a22,22,0,0,0-4.19,8.44C4.74,49.66,6.23,52.92,9.79,53.15ZM25,63.13l-.05,0,.07,0s0,0,0,0Z" fill="#fff"/><path id="Path_26" data-name="Path 26" d="M32,106.67a40.3,40.3,0,0,0,14,5.78,34,34,0,0,0,7.25.77c15.34,0,29.94-10.26,36.06-25.16a40.44,40.44,0,0,1-13.87,3.2C61.52,91.87,55,84.44,42.53,83c-6-.68-14.81-.15-26.26,6.1A49.3,49.3,0,0,0,24.39,100,50.57,50.57,0,0,0,32,106.67Z" fill="#fff"/></g></g></g></svg>