<svg xmlns="http://www.w3.org/2000/svg" viewBox="0 0 48.22 27.6"><g id="Layer_2" data-name="Layer 2"><g id="UI"><path d="M27.86,10.19a39.35,39.35,0,0,0,6-2.91,35.27,35.27,0,0,0,4-2.7,17.51,17.51,0,0,1,.62,3.21l0,.3c.6,7.4-4.14,15-11.57,16.55a15.84,15.84,0,0,1-6,.21,19.14,19.14,0,0,1-3.76-1.13,19.16,19.16,0,0,1-4.65-2.56,21.82,21.82,0,0,1-2.32-2,.58.58,0,0,0-.89.72,16.75,16.75,0,0,0,3.15,3.63,16,16,0,0,0,8.86,3.9C30,28.77,37.92,23,40.32,14.82a19.88,19.88,0,0,0,.37-9.75,19.19,19.19,0,0,0-1-3.15,1.27,1.27,0,0,0-2-.45A55,55,0,0,1,27.31,9,.64.64,0,0,0,27.86,10.19Z" fill="#c1272d"/><path d="M46,.43a3.46,3.46,0,0,0-4,.46,3.32,3.32,0,0,0-.91,1.72h0a4,4,0,0,0,0,1.34.54.54,0,0,0,.57.46.51.51,0,0,0,.43-.27L42.18,4a4.54,4.54,0,0,1,.58-1.09,1.53,1.53,0,0,1,2-.51,2,2,0,0,1,.9.94,7.88,7.88,0,0,1,.75,2.35A9.6,9.6,0,0,1,46.44,7a.57.57,0,0,0,.26.51.58.58,0,0,0,.79-.17,4.76,4.76,0,0,0,.63-1.58,5.47,5.47,0,0,0,0-2.17A4.41,4.41,0,0,0,46,.43Z" fill="#c1272d"/><path d="M28.05,18.76a1.45,1.45,0,0,1-.17,2.65,10.92,10.92,0,0,1-1.51.44,14.06,14.06,0,0,1-3,.34A11.92,11.92,0,0,1,21.47,22a17.27,17.27,0,0,1-3.2-1,16,16,0,0,1-4-2.18,18,18,0,0,1-2-1.74l0,0a3.43,3.43,0,0,0-5.38.8l0,0A6.26,6.26,0,0,1,5,19.84c-.46.3-2.35,1.52-3.66.83C-.16,19.91,0,17.2,0,16.79c.06-4.5,3.77-7,6.48-8.19A10.24,10.24,0,0,1,12,7.78h0a17.18,17.18,0,0,1,2.57.51h.07a13.79,13.79,0,0,1,4.21,2c3.75,2.64,4.55,6.18,9.14,8.44l.06,0Z" fill="#c1272d"/></g></g></svg>